<svg width="366" height="816" viewBox="0 0 366 816" fill="none" xmlns="http://www.w3.org/2000/svg">
<path d="M496.575 211.739C525.506 210.837 553.686 225.554 575.007 254.195C607.714 298.081 635.399 359.96 667.061 422.413C679.393 446.733 685.434 477.453 682.549 507.923C676.256 574.404 634.446 587.808 598.764 600.479C570.456 610.529 538.328 629.684 530.509 671.433C524.804 701.912 534.425 733.04 540.092 763.256C547.379 802.163 547.306 847.658 530.272 879.691C508.865 919.937 467.868 924.727 435.818 907.623C403.768 890.519 377.456 856.514 348.964 828.925C308.232 789.487 262.197 762.572 223.044 719.773C183.888 677.005 150.888 611.955 153.072 539.094C154.811 481.745 178.559 428.949 209.492 394.039C240.426 359.129 277.948 339.921 315.454 326.043C345.464 314.942 377.227 305.955 401.427 276.985C404.634 273.146 407.674 268.983 410.611 264.637C432.505 232.317 461.441 212.824 492.046 211.893L496.575 211.739Z" stroke="#008080" stroke-opacity="0.08" stroke-width="3" stroke-miterlimit="10"/>
<path d="M513.245 263.618C539.364 262.821 564.805 276.103 584.044 301.921C613.561 341.539 638.551 397.409 667.134 453.752C678.267 475.699 683.711 503.423 681.12 530.945C675.429 590.939 637.708 603.075 605.485 614.501C579.931 623.587 550.927 640.848 543.857 678.55C538.701 706.054 547.394 734.162 552.52 761.429C559.101 796.564 559.033 837.63 543.652 866.54C524.314 902.867 487.324 907.179 458.398 891.767C429.455 876.32 405.727 845.612 379.998 820.744C343.24 785.155 301.694 760.852 266.328 722.228C230.982 683.609 201.2 624.892 203.184 559.123C204.752 507.344 226.192 459.683 254.118 428.196C282.044 396.709 315.904 379.349 349.771 366.826C376.845 356.796 405.531 348.686 427.366 322.528C430.276 319.048 433.011 315.304 435.645 311.377C455.421 282.215 481.526 264.6 509.154 263.762L513.245 263.618Z" stroke="#008080" stroke-opacity="0.08" stroke-width="3" stroke-miterlimit="10"/>
<path d="M539.423 313.966C563.134 313.224 586.224 325.297 603.7 348.75C630.49 384.721 653.176 435.432 679.125 486.593C689.222 506.522 694.18 531.685 691.814 556.645C686.646 611.098 652.408 622.12 623.161 632.485C599.971 640.726 573.633 656.408 567.218 690.632C562.532 715.607 570.432 741.105 575.085 765.877C581.059 797.765 580.999 835.027 567.024 861.28C549.471 894.269 515.896 898.166 489.628 884.168C463.364 870.141 441.798 842.277 418.469 819.691C385.094 787.36 347.373 765.307 315.286 730.256C283.199 695.205 256.17 641.89 257.957 582.214C259.373 535.2 278.847 491.952 304.191 463.344C329.534 434.736 360.285 418.995 391.019 407.616C415.593 398.521 441.636 391.154 461.45 367.398C464.088 364.253 466.571 360.848 468.968 357.296C486.92 330.806 510.621 314.839 535.691 314.079L539.423 313.966Z" stroke="#008080" stroke-opacity="0.08" stroke-width="3" stroke-miterlimit="10"/>
<path d="M578.266 362.071C601.977 361.33 625.067 373.403 642.542 396.856C669.333 432.827 692.019 483.538 717.968 534.699C728.065 554.627 733.023 579.791 730.656 604.751C725.488 659.204 691.25 670.226 662.004 680.591C638.813 688.831 612.476 704.513 606.061 738.737C601.375 763.713 609.275 789.211 613.928 813.983C619.902 845.871 619.842 883.133 605.867 909.386C588.314 942.375 554.739 946.272 528.471 932.274C502.207 918.246 480.641 890.383 457.312 867.797C423.937 835.466 386.216 813.413 354.129 778.362C322.042 743.311 295.013 689.996 296.8 630.32C298.216 583.306 317.69 540.058 343.034 511.45C368.377 482.842 399.128 467.1 429.862 455.722C454.435 446.627 480.479 439.26 500.293 415.504C502.931 412.358 505.413 408.954 507.811 405.402C525.762 378.912 549.464 362.945 574.534 362.185L578.266 362.071Z" stroke="#008080" stroke-opacity="0.08" stroke-width="3" stroke-miterlimit="10"/>
<path d="M563.657 106.631C601.935 105.465 639.235 124.943 667.455 162.787C710.725 220.858 747.367 302.772 789.264 385.378C805.581 417.543 813.563 458.192 809.747 498.525C801.412 586.463 746.094 604.251 698.883 621.013C661.43 634.312 618.906 659.633 608.538 714.907C600.982 755.258 613.744 796.411 621.226 836.399C630.865 887.902 630.788 948.088 608.226 990.496C579.906 1043.78 525.679 1050.12 483.251 1027.49C440.822 1004.86 406.027 959.834 368.32 923.341C314.419 871.155 253.51 835.506 201.699 778.908C149.887 722.31 106.224 636.216 109.111 539.8C111.391 463.907 142.842 394.038 183.764 347.833C224.703 301.664 274.339 276.242 323.989 257.873C363.69 243.167 405.743 231.292 437.743 192.949C441.988 187.854 446.013 182.358 449.899 176.639C478.878 133.854 517.159 108.076 557.659 106.837L563.657 106.631Z" stroke="#008080" stroke-opacity="0.08" stroke-width="3" stroke-miterlimit="10"/>
</svg>
