<svg width="24" height="24" viewBox="0 0 24 24" fill="none" xmlns="http://www.w3.org/2000/svg">
<g clip-path="url(#clip0_1_206)">
<path d="M3 8.25V9.75H1.5C1.30109 9.75 1.11032 9.67098 0.96967 9.53033C0.829018 9.38968 0.75 9.19891 0.75 9C0.75 8.80109 0.829018 8.61032 0.96967 8.46967C1.11032 8.32902 1.30109 8.25 1.5 8.25H3ZM3 11.25V12.75H1.5C1.30109 12.75 1.11032 12.671 0.96967 12.5303C0.829018 12.3897 0.75 12.1989 0.75 12C0.75 11.8011 0.829018 11.6103 0.96967 11.4697C1.11032 11.329 1.30109 11.25 1.5 11.25H3ZM3 14.25V15.75H1.5C1.30109 15.75 1.11032 15.671 0.96967 15.5303C0.829018 15.3897 0.75 15.1989 0.75 15C0.75 14.8011 0.829018 14.6103 0.96967 14.4697C1.11032 14.329 1.30109 14.25 1.5 14.25H3Z" fill="#F2F1F2"/>
<path d="M21 0H4.5C3.90326 0 3.33097 0.237053 2.90901 0.65901C2.48705 1.08097 2.25 1.65326 2.25 2.25V8.25H4.5C4.69891 8.25 4.88968 8.32902 5.03033 8.46967C5.17098 8.61032 5.25 8.80109 5.25 9C5.25 9.19891 5.17098 9.38968 5.03033 9.53033C4.88968 9.67098 4.69891 9.75 4.5 9.75H2.25V11.25H4.5C4.69891 11.25 4.88968 11.329 5.03033 11.4697C5.17098 11.6103 5.25 11.8011 5.25 12C5.25 12.1989 5.17098 12.3897 5.03033 12.5303C4.88968 12.671 4.69891 12.75 4.5 12.75H2.25V14.25H4.5C4.69891 14.25 4.88968 14.329 5.03033 14.4697C5.17098 14.6103 5.25 14.8011 5.25 15C5.25 15.1989 5.17098 15.3897 5.03033 15.5303C4.88968 15.671 4.69891 15.75 4.5 15.75H2.25V21.75C2.25 22.3467 2.48705 22.919 2.90901 23.341C3.33097 23.7629 3.90326 24 4.5 24H21C21.5967 24 22.169 23.7629 22.591 23.341C23.0129 22.919 23.25 22.3467 23.25 21.75V2.25C23.25 1.65326 23.0129 1.08097 22.591 0.65901C22.169 0.237053 21.5967 0 21 0V0ZM12.75 7.125C13.1208 7.125 13.4834 7.23497 13.7917 7.44099C14.1 7.64702 14.3404 7.93986 14.4823 8.28247C14.6242 8.62508 14.6613 9.00208 14.589 9.3658C14.5166 9.72951 14.338 10.0636 14.0758 10.3258C13.8136 10.588 13.4795 10.7666 13.1158 10.839C12.7521 10.9113 12.3751 10.8742 12.0325 10.7323C11.6899 10.5904 11.397 10.35 11.191 10.0417C10.985 9.73335 10.875 9.37084 10.875 9C10.875 8.50272 11.0725 8.02581 11.4242 7.67417C11.7758 7.32254 12.2527 7.125 12.75 7.125ZM16.875 16.5C16.875 16.5995 16.8355 16.6948 16.7652 16.7652C16.6948 16.8355 16.5995 16.875 16.5 16.875H9C8.90054 16.875 8.80516 16.8355 8.73483 16.7652C8.66451 16.6948 8.625 16.5995 8.625 16.5V15.75C8.62698 14.8555 8.9832 13.9982 9.6157 13.3657C10.2482 12.7332 11.1055 12.377 12 12.375H13.5C14.3945 12.377 15.2518 12.7332 15.8843 13.3657C16.5168 13.9982 16.873 14.8555 16.875 15.75V16.5Z" fill="#F2F1F2"/>
</g>
<defs>
<clipPath id="clip0_1_206">
<rect width="24" height="24" fill="white"/>
</clipPath>
</defs>
</svg>
