<svg width="36" height="36" viewBox="0 0 36 36" fill="none" xmlns="http://www.w3.org/2000/svg">
<g clip-path="url(#clip0_1_161)">
<path d="M31.5 36H4.5C2.016 36 0 33.984 0 31.5V4.5C0 2.016 2.016 0 4.5 0H31.5C33.984 0 36 2.016 36 4.5V31.5C36 33.984 33.984 36 31.5 36Z" fill="#008080"/>
<path d="M25.0066 23.2031L25.8047 18H20.8125V14.6235C20.8125 13.2 21.5098 11.8125 23.7459 11.8125H26.0156V7.38281C26.0156 7.38281 23.9557 7.03125 21.9864 7.03125C17.8748 7.03125 15.1875 9.52313 15.1875 14.0344V18H10.6172V23.2031H15.1875V35.7813C16.1039 35.9251 17.0432 36 18 36C18.9568 36 19.8961 35.9251 20.8125 35.7813V23.2031H25.0066Z" fill="white"/>
</g>
<defs>
<clipPath id="clip0_1_161">
<rect width="36" height="36" fill="white"/>
</clipPath>
</defs>
</svg>
