<svg width="36" height="36" viewBox="0 0 36 36" fill="none" xmlns="http://www.w3.org/2000/svg">
<rect width="36" height="36" rx="5" fill="#008080"/>
<path d="M18.0013 4.5C14.3349 4.5 13.8747 4.51603 12.4347 4.58157C10.9975 4.64738 10.0165 4.87492 9.15811 5.20878C8.2702 5.55361 7.517 6.01487 6.76662 6.76556C6.01567 7.51597 5.55442 8.26918 5.20848 9.15685C4.87378 10.0155 4.64597 10.9969 4.58128 12.4335C4.51688 13.8736 4.5 14.334 4.5 18.0005C4.5 21.6671 4.51631 22.1258 4.58156 23.5659C4.64766 25.0031 4.87519 25.9842 5.20876 26.8426C5.55385 27.7305 6.01511 28.4837 6.76577 29.2341C7.51588 29.9851 8.26907 30.4475 9.15642 30.7923C10.0154 31.1262 10.9967 31.3537 12.4336 31.4195C13.8736 31.4851 14.3334 31.5011 17.9996 31.5011C21.6663 31.5011 22.125 31.4851 23.565 31.4195C25.0022 31.3537 25.9843 31.1262 26.8433 30.7923C27.7309 30.4475 28.483 29.9851 29.2331 29.2341C29.984 28.4837 30.4453 27.7305 30.7912 26.8428C31.1231 25.9842 31.3509 25.0028 31.4184 23.5662C31.4831 22.1261 31.5 21.6671 31.5 18.0005C31.5 14.334 31.4831 13.8739 31.4184 12.4338C31.3509 10.9966 31.1231 10.0155 30.7912 9.15713C30.4453 8.26918 29.984 7.51597 29.2331 6.76556C28.4822 6.01459 27.7312 5.55332 26.8425 5.20878C25.9818 4.87492 25.0002 4.64738 23.563 4.58157C22.123 4.51603 21.6646 4.5 17.997 4.5H18.0013ZM16.7902 6.93291C17.1496 6.93235 17.5507 6.93291 18.0013 6.93291C21.6058 6.93291 22.033 6.94585 23.4564 7.01054C24.7727 7.07073 25.4871 7.29068 25.963 7.47547C26.593 7.72016 27.0421 8.01267 27.5144 8.48519C27.9869 8.95771 28.2794 9.40773 28.5246 10.0378C28.7094 10.5131 28.9296 11.2275 28.9895 12.5438C29.0542 13.967 29.0683 14.3945 29.0683 17.9975C29.0683 21.6004 29.0542 22.0279 28.9895 23.4511C28.9293 24.7674 28.7094 25.4818 28.5246 25.9572C28.2799 26.5872 27.9869 27.0358 27.5144 27.508C27.0419 27.9805 26.5933 28.2731 25.963 28.5178C25.4877 28.7034 24.7727 28.9228 23.4564 28.983C22.0333 29.0477 21.6058 29.0617 18.0013 29.0617C14.3964 29.0617 13.9692 29.0477 12.5461 28.983C11.2298 28.9222 10.5154 28.7023 10.0393 28.5175C9.40927 28.2728 8.95926 27.9803 8.48676 27.5077C8.01426 27.0352 7.72175 26.5863 7.4765 25.956C7.29172 25.4807 7.0715 24.7663 7.01159 23.45C6.9469 22.0268 6.93396 21.5993 6.93396 17.9941C6.93396 14.3889 6.9469 13.9636 7.01159 12.5404C7.07178 11.2241 7.29172 10.5097 7.4765 10.0338C7.72119 9.40379 8.01426 8.95377 8.48676 8.48126C8.95926 8.00874 9.40927 7.71622 10.0393 7.47096C10.5152 7.28533 11.2298 7.06595 12.5461 7.00548C13.7915 6.94922 14.2741 6.93235 16.7902 6.92954V6.93291ZM25.2075 9.17456C24.3131 9.17456 23.5875 9.89938 23.5875 10.7941C23.5875 11.6885 24.3131 12.4141 25.2075 12.4141C26.1019 12.4141 26.8275 11.6885 26.8275 10.7941C26.8275 9.89966 26.1019 9.174 25.2075 9.174V9.17456ZM18.0013 11.0675C14.1726 11.0675 11.0684 14.1717 11.0684 18.0005C11.0684 21.8294 14.1726 24.9322 18.0013 24.9322C21.83 24.9322 24.933 21.8294 24.933 18.0005C24.933 14.1717 21.8297 11.0675 18.001 11.0675H18.0013ZM18.0013 13.5004C20.4864 13.5004 22.5013 15.515 22.5013 18.0005C22.5013 20.4858 20.4864 22.5007 18.0013 22.5007C15.5158 22.5007 13.5012 20.4858 13.5012 18.0005C13.5012 15.515 15.5158 13.5004 18.0013 13.5004Z" fill="white"/>
</svg>
