<svg width="24" height="33" viewBox="0 0 24 33" fill="none" xmlns="http://www.w3.org/2000/svg">
<g clip-path="url(#clip0_1_198)">
<path d="M24 12.5C24 21.228 13.8463 31.482 13.4145 31.9142C13.0394 32.2892 12.5307 32.4999 12.0002 32.4999C11.4698 32.4999 10.9611 32.2892 10.586 31.9142C10.1538 31.4817 0 21.228 0 12.5C0 9.3174 1.26428 6.26515 3.51472 4.01472C5.76515 1.76428 8.8174 0.5 12 0.5C15.1826 0.5 18.2348 1.76428 20.4853 4.01472C22.7357 6.26515 24 9.3174 24 12.5ZM12 18.5C13.1867 18.5 14.3467 18.1481 15.3334 17.4888C16.3201 16.8295 17.0892 15.8925 17.5433 14.7961C17.9974 13.6997 18.1162 12.4933 17.8847 11.3295C17.6532 10.1656 17.0818 9.09647 16.2426 8.25736C15.4035 7.41824 14.3344 6.8468 13.1705 6.61529C12.0067 6.38378 10.8003 6.5026 9.7039 6.95672C8.60754 7.41085 7.67047 8.17988 7.01118 9.16658C6.35189 10.1533 6 11.3133 6 12.5C5.99997 13.2879 6.15514 14.0682 6.45666 14.7961C6.75817 15.5241 7.20013 16.1856 7.75729 16.7427C8.31444 17.2999 8.97589 17.7418 9.70386 18.0433C10.4318 18.3449 11.2121 18.5 12 18.5Z" fill="#F2F1F2"/>
</g>
<defs>
<clipPath id="clip0_1_198">
<rect width="24" height="32" fill="white" transform="translate(0 0.5)"/>
</clipPath>
</defs>
</svg>
