<svg width="36" height="36" viewBox="0 0 36 36" fill="none" xmlns="http://www.w3.org/2000/svg">
<g clip-path="url(#clip0_1_167)">
<path d="M31.5 36H4.5C2.016 36 0 33.984 0 31.5V4.5C0 2.016 2.016 0 4.5 0H31.5C33.984 0 36 2.016 36 4.5V31.5C36 33.984 33.984 36 31.5 36Z" fill="#008080"/>
<path d="M24.3815 8H27.7537L20.3496 16.4871L29 28H22.2116L16.8967 21.0037L10.8121 28H7.43985L15.2839 18.9225L7 8H13.957L18.7587 14.3911L24.3815 8ZM23.2013 26.0074H25.0706L12.9747 9.91882H10.966L23.2013 26.0074Z" fill="white"/>
</g>
<defs>
<clipPath id="clip0_1_167">
<rect width="36" height="36" fill="white"/>
</clipPath>
</defs>
</svg>
